<svg xmlns="http://www.w3.org/2000/svg" xmlns:xlink="http://www.w3.org/1999/xlink" xml:space="preserve" version="1.1" style="shape-rendering:geometricPrecision; text-rendering:geometricPrecision; image-rendering:optimizeQuality; fill-rule:evenodd; clip-rule:evenodd" viewBox="1186 1445 1879 511">
 <defs fill="#000000">
  <style type="text/css">
   <![CDATA[
    .fil0 {fill:none}
    .fil5 {fill:#4D8B48}
    .fil3 {fill:#AC2833}
    .fil4 {fill:#E6E6E6}
    .fil6 {fill:#0000ff;fill-rule:nonzero}
    .fil1 {fill:#4D8B48;fill-rule:nonzero}
    .fil2 {fill:#AC2833;fill-rule:nonzero}
   ]]>
  </style>
 </defs>
 <g id="Layer_x0020_1">
  <metadata id="CorelCorpID_0Corel-Layer" fill="#000000"/>
  <rect class="fil0" width="4251" height="3400" fill="#000000"/>
  <g id="_1932135957920">
   <path class="fil1" d="M1236 1825c0,7 -2,13 -7,18 -5,5 -11,7 -18,7 -7,0 -13,-2 -18,-7 -5,-5 -7,-11 -7,-18l0 -178c0,-7 2,-13 7,-18 5,-5 11,-8 18,-8 7,0 13,3 18,8 5,5 7,11 7,18l0 178zm439 -204c7,0 13,3 18,8 5,5 7,11 7,18 0,7 -2,13 -7,17 -5,5 -11,8 -18,8l-155 0 0 153c0,7 -3,13 -8,18 -5,5 -11,7 -18,7 -7,0 -12,-2 -17,-7 -5,-5 -8,-11 -8,-18l0 -153 -157 0c-7,-1 -12,-4 -17,-8 -4,-5 -6,-11 -6,-17 0,-7 2,-13 7,-18 5,-5 11,-8 18,-8l361 0zm57 220c-5,6 -12,9 -20,9 -7,0 -13,-2 -17,-7 -5,-5 -8,-11 -8,-18 0,-6 2,-11 5,-15l128 -172c6,-8 14,-14 24,-19 9,-6 20,-8 31,-8 11,0 21,2 30,7 9,4 17,11 23,19l128 170c2,3 4,5 5,8 1,3 2,7 2,10 0,7 -2,13 -7,18 -5,5 -11,7 -18,7 -9,0 -15,-3 -20,-10l-122 -163c-3,-3 -6,-6 -10,-9 -3,-3 -7,-5 -11,-5 -4,0 -7,2 -11,5 -4,3 -7,6 -9,9l-123 164zm456 9c-10,0 -20,-2 -28,-5 -9,-4 -17,-9 -23,-15 -7,-6 -12,-14 -16,-22 -3,-9 -5,-18 -5,-27l0 -134c0,-7 2,-13 7,-18 5,-5 11,-8 18,-8 6,0 12,3 17,8 5,5 8,11 8,18l0 134c0,5 2,9 6,13 4,4 9,6 14,6l315 0c7,0 13,2 18,7 5,5 7,11 7,18 0,7 -2,13 -7,18 -5,5 -11,7 -18,7l-313 0z" fill="#000000"/>
   <path class="fil2" d="M3057 1825c0,7 -2,13 -7,18 -5,5 -11,7 -18,7 -7,0 -13,-2 -18,-7 -4,-5 -7,-11 -7,-18l0 -178c0,-7 3,-13 7,-18 5,-5 11,-8 18,-8 7,0 13,3 18,8 5,5 7,11 7,18l0 178z" fill="#000000"/>
   <path class="fil2" d="M2623 1841c-5,6 -11,9 -19,9 -7,0 -13,-2 -18,-7 -5,-5 -7,-11 -7,-18 0,-6 1,-11 5,-15l127 -172c6,-8 14,-14 24,-19 10,-6 20,-8 32,-8 10,0 20,2 30,7 9,4 17,11 23,19l127 170c2,3 4,5 5,8 2,3 3,7 3,10 0,7 -3,13 -8,18 -5,5 -11,7 -18,7 -8,0 -15,-3 -20,-10l-122 -163c-2,-3 -5,-6 -9,-9 -4,-3 -8,-5 -11,-5 -4,0 -8,2 -12,5 -3,3 -6,6 -8,9l-124 164z" fill="#000000"/>
   <path class="fil2" d="M2734 1794c0,-9 3,-17 10,-23 6,-7 14,-10 23,-10 9,0 16,3 23,10 6,6 9,14 9,23 0,9 -3,16 -9,23 -7,6 -14,9 -23,9 -9,0 -17,-3 -23,-9 -7,-7 -10,-14 -10,-23z" fill="#000000"/>
   <path class="fil3" d="M2638 1464c124,-5 246,17 355,82 -108,-73 -230,-101 -356,-101l1 19z" fill="#000000"/>
   <path class="fil4" d="M2287 1540c108,-39 222,-68 335,-75l-1 -20c-116,2 -234,28 -346,64l12 31z" fill="#000000"/>
   <path class="fil5" d="M1727 1846c0,0 244,-189 546,-301l-12 -31c-312,106 -567,296 -567,296l33 36z" fill="#000000"/>
   <path class="fil2" d="M3000 1567c0,-10 3,-17 9,-24 6,-6 14,-9 23,-9 9,0 17,3 23,9 7,7 10,14 10,24 0,9 -3,16 -10,23 -6,6 -14,9 -23,9 -9,0 -17,-3 -23,-9 -6,-7 -9,-14 -9,-23z" fill="#000000"/>
   <polygon class="fil6" points="1197,1956 1197,1922 1203,1922 1203,1956 " fill="#000000"/>
   <polygon id="1" class="fil6" points="1258,1956 1222,1929 1222,1956 1216,1956 1216,1922 1222,1922 1255,1947 1255,1922 1261,1922 1261,1956 " fill="#000000"/>
   <path id="2" class="fil6" d="M1286 1956c-8,0 -12,-3 -12,-8l0 -19c0,-5 4,-7 12,-7l26 0 0 5 -26 0c-4,0 -6,1 -6,2l0 19c0,2 2,3 6,3l14 0c4,0 6,-1 6,-3l0 -11 6 0 0 11c0,5 -4,8 -12,8l-14 0z" fill="#000000"/>
   <polygon id="3" class="fil6" points="1325,1956 1325,1922 1360,1922 1360,1927 1331,1927 1331,1935 1358,1935 1358,1940 1331,1940 1331,1951 1360,1951 1360,1956 " fill="#000000"/>
   <path id="4" class="fil6" d="M1383 1956c-8,0 -12,-3 -12,-8l0 -19c0,-5 4,-7 12,-7l27 0 0 5 -27 0c-3,0 -5,1 -5,2l0 19c0,2 2,3 5,3l15 0c4,0 6,-1 6,-3l0 -11 6 0 0 11c0,5 -4,8 -12,8l-15 0z" fill="#000000"/>
   <polygon id="5" class="fil6" points="1464,1956 1428,1929 1428,1956 1423,1956 1423,1922 1428,1922 1462,1947 1462,1922 1467,1922 1467,1956 " fill="#000000"/>
   <path id="6" class="fil6" d="M1490 1956c-2,0 -3,-1 -4,-1 -2,0 -3,-1 -4,-2 -1,0 -1,-1 -2,-2 0,-1 0,-2 0,-3l0 -18c0,-1 0,-2 0,-3 1,-1 1,-2 2,-3 1,0 2,-1 4,-1 1,-1 2,-1 4,-1l23 0c2,0 3,0 5,1 1,0 2,1 3,1 1,1 1,2 2,3 0,1 0,2 0,3l0 18c0,1 0,2 0,3 -1,1 -1,2 -2,2 -1,1 -2,2 -3,2 -2,0 -3,1 -5,1l-23 0zm27 -26c0,-2 -2,-3 -4,-3l-23 0c-2,0 -4,1 -4,3l0 18c0,2 2,3 4,3l23 0c2,0 4,-1 4,-3l0 -18z" fill="#000000"/>
   <polygon id="7" class="fil6" points="1560,1956 1560,1922 1566,1922 1566,1956 " fill="#000000"/>
   <polygon id="8" class="fil6" points="1595,1956 1595,1927 1577,1927 1577,1922 1619,1922 1619,1927 1601,1927 1601,1956 " fill="#000000"/>
   <polygon id="9" class="fil6" points="1660,1956 1642,1929 1625,1956 1617,1956 1640,1922 1644,1922 1667,1956 " fill="#000000"/>
   <polygon id="10" class="fil6" points="1676,1956 1676,1922 1683,1922 1683,1951 1710,1951 1710,1956 " fill="#000000"/>
   <polygon id="11" class="fil6" points="1721,1956 1721,1922 1728,1922 1728,1956 " fill="#000000"/>
   <polygon id="12" class="fil6" points="1780,1956 1762,1929 1745,1956 1738,1956 1760,1922 1765,1922 1787,1956 " fill="#000000"/>
   <polygon id="13" class="fil6" points="1838,1956 1802,1929 1802,1956 1797,1956 1797,1922 1802,1922 1836,1947 1836,1922 1841,1922 1841,1956 " fill="#000000"/>
   <path id="14" class="fil6" d="M1864 1956c-1,0 -3,-1 -4,-1 -2,0 -3,-1 -4,-2 -1,0 -1,-1 -2,-2 0,-1 0,-2 0,-3l0 -18c0,-1 0,-2 0,-3 1,-1 1,-2 2,-3 1,0 2,-1 4,-1 1,-1 3,-1 4,-1l23 0c2,0 3,0 5,1 1,0 2,1 3,1 1,1 1,2 2,3 0,1 0,2 0,3l0 18c0,1 0,2 0,3 -1,1 -1,2 -2,2 -1,1 -2,2 -3,2 -2,0 -3,1 -5,1l-23 0zm27 -26c0,-2 -2,-3 -4,-3l-23 0c-2,0 -4,1 -4,3l0 18c0,2 2,3 4,3l23 0c2,0 4,-1 4,-3l0 -18z" fill="#000000"/>
   <polygon id="15" class="fil6" points="1934,1956 1934,1922 1940,1922 1940,1956 " fill="#000000"/>
   <polygon id="16" class="fil6" points="1995,1956 1959,1929 1959,1956 1953,1956 1953,1922 1959,1922 1992,1947 1992,1922 1998,1922 1998,1956 " fill="#000000"/>
   <polygon id="17" class="fil6" points="2035,1956 2035,1922 2041,1922 2041,1956 " fill="#000000"/>
   <polygon id="18" class="fil6" points="2096,1956 2060,1929 2060,1956 2054,1956 2054,1922 2060,1922 2093,1947 2093,1922 2099,1922 2099,1956 " fill="#000000"/>
   <polygon id="19" class="fil6" points="2127,1956 2127,1927 2110,1927 2110,1922 2151,1922 2151,1927 2134,1927 2134,1956 " fill="#000000"/>
   <polygon id="20" class="fil6" points="2162,1956 2162,1922 2196,1922 2196,1927 2168,1927 2168,1935 2195,1935 2195,1940 2168,1940 2168,1951 2196,1951 2196,1956 " fill="#000000"/>
   <polygon id="21" class="fil6" points="2208,1956 2208,1922 2215,1922 2215,1951 2242,1951 2242,1956 " fill="#000000"/>
   <polygon id="22" class="fil6" points="2253,1956 2253,1922 2260,1922 2260,1951 2287,1951 2287,1956 " fill="#000000"/>
   <polygon id="23" class="fil6" points="2298,1956 2298,1922 2305,1922 2305,1956 " fill="#000000"/>
   <path id="24" class="fil6" d="M2329 1956c-8,0 -12,-3 -12,-8l0 -19c0,-5 4,-7 12,-7l27 0 0 5 -27 0c-3,0 -5,1 -5,2l0 19c0,2 2,3 5,3l15 0c4,0 6,-1 6,-3l0 -11 6 0 0 11c0,5 -4,8 -12,8l-15 0z" fill="#000000"/>
   <polygon id="25" class="fil6" points="2369,1956 2369,1922 2403,1922 2403,1927 2375,1927 2375,1935 2402,1935 2402,1940 2375,1940 2375,1951 2403,1951 2403,1956 " fill="#000000"/>
   <polygon id="26" class="fil6" points="2457,1956 2421,1929 2421,1956 2415,1956 2415,1922 2421,1922 2454,1947 2454,1922 2460,1922 2460,1956 " fill="#000000"/>
   <polygon id="27" class="fil6" points="2472,1956 2472,1951 2506,1927 2472,1927 2472,1922 2517,1922 2517,1926 2483,1950 2517,1950 2517,1956 " fill="#000000"/>
   <polygon id="28" class="fil6" points="2568,1956 2550,1929 2533,1956 2526,1956 2548,1922 2553,1922 2575,1956 " fill="#000000"/>
   <polygon id="29" class="fil6" points="2647,1956 2630,1929 2612,1956 2605,1956 2628,1922 2632,1922 2655,1956 " fill="#000000"/>
   <path id="30" class="fil6" d="M2696 1956l-8 -15 -17 0 0 15 -7 0 0 -34 29 0c2,0 3,0 5,1 1,0 2,1 3,1 1,1 2,2 2,3 0,1 0,2 0,3l0 3c0,2 0,3 -1,5 -2,1 -4,2 -7,3l8 15 -7 0zm1 -26c0,-2 -1,-3 -4,-3l-22 0 0 9 22 0c3,0 4,-1 4,-3l0 -3z" fill="#000000"/>
   <polygon id="31" class="fil6" points="2731,1956 2731,1927 2713,1927 2713,1922 2754,1922 2754,1927 2737,1927 2737,1956 " fill="#000000"/>
   <polygon id="32" class="fil6" points="2765,1956 2765,1922 2772,1922 2772,1956 " fill="#000000"/>
   <polygon id="33" class="fil6" points="2791,1942 2791,1956 2785,1956 2785,1922 2820,1922 2820,1927 2791,1927 2791,1937 2818,1937 2818,1942 " fill="#000000"/>
   <polygon id="34" class="fil6" points="2830,1956 2830,1922 2836,1922 2836,1956 " fill="#000000"/>
   <path id="35" class="fil6" d="M2860 1956c-2,0 -4,-1 -5,-1 -2,0 -3,-1 -4,-2 0,0 -1,-1 -1,-2 -1,-1 -1,-2 -1,-3l0 -18c0,-1 0,-2 1,-3 0,-1 1,-2 1,-3 1,0 2,-1 4,-1 1,-1 3,-1 5,-1l27 0 0 5 -27 0c-3,0 -5,1 -5,3l0 18c0,2 2,3 5,3l27 0 0 5 -27 0z" fill="#000000"/>
   <polygon id="36" class="fil6" points="2899,1956 2899,1922 2905,1922 2905,1956 " fill="#000000"/>
   <polygon id="37" class="fil6" points="2957,1956 2940,1929 2922,1956 2915,1956 2938,1922 2942,1922 2965,1956 " fill="#000000"/>
   <polygon id="38" class="fil6" points="2974,1956 2974,1922 2981,1922 2981,1951 3008,1951 3008,1956 " fill="#000000"/>
   <polygon id="39" class="fil6" points="3019,1956 3019,1922 3054,1922 3054,1927 3025,1927 3025,1935 3052,1935 3052,1940 3025,1940 3025,1951 3054,1951 3054,1956 " fill="#000000"/>
  </g>
 </g>
</svg>