<?xml version="1.0" encoding="UTF-8"?>
<svg id="Layer_1" xmlns="http://www.w3.org/2000/svg" viewBox="0 0 1726.46 207.23">
  <defs>
    <style>
      .cls-1 {
        fill: #eac9ac;
      }

      .cls-2 {
        fill: #0d2c3e;
      }

      .cls-3 {
        fill: #8aa19c;
      }

      .cls-4 {
        fill: #2e303f;
      }

      .cls-5 {
        fill: #be968e;
      }

      .cls-6 {
        fill: #ececec;
      }

      .cls-7 {
        fill: #61797d;
      }
    </style>
  </defs>
  <path class="cls-2" d="M942.56,136.51c0-19,.02-37.99,0-56.99-.02-8.73,2.16-11.09,10.71-11.18,7.5-.07,15-.08,22.5-.02,5.32.04,7.29,1.74,7.31,7.2.07,17.99-.16,35.99-.15,53.98,0,8.83.37,17.65.36,26.48,0,3.33.92,4.6,4.57,4.55,12.66-.18,25.33.19,37.99.07,9-.09,16.99-3.68,23.95-9.01,33.97-25.99,32.75-75.54-8.89-95.26-5.67-2.68-11.57-4.07-17.87-4.03-23.33.15-46.66.26-69.99.31-8.09.02-10.76-2.68-10.86-10.79-.09-7.33-.08-14.66.02-21.99.08-6.37,2.77-9.26,9.13-9.28,25-.09,50.08-1.35,74.97.32,33.47,2.25,58.78,19.38,74.91,48.84,31.24,57.06-.17,126.33-63.57,140.95-6.54,1.51-13.22,1.71-19.88,1.73-22.5.06-44.99,0-67.49,0-5.47,0-8.03-2.48-8.03-7.88-.02-19.33,0-38.65,0-57.98.11,0,.22,0,.33,0Z"/>
  <path class="cls-2" d="M675.06,9.77c35.33.71,58.52,11.86,76.37,34.01,5.14,6.37,5.1,9.03-.98,14.22-5.06,4.32-10.21,8.57-15.59,12.48-6.35,4.62-8.77,4.29-14.18-1.36-5.11-5.34-10.7-9.96-17.38-13.25-20.49-10.1-40.05-7.96-57.63,6.02-17.78,14.15-24.89,33.14-20.1,55.6,6.83,32,38.08,51.61,68.73,43.32,12.24-3.31,21.79-11.22,30.52-20.11,4.45-4.54,5.1-4.61,9.6-.21,5.72,5.58,11.42,11.19,17.07,16.85,3.89,3.9,4.15,6.46.81,10.92-8.38,11.2-19.49,18.97-31.97,24.96-37.74,18.12-83.21,9.89-110.17-19.94-34.51-38.18-34.69-98.04.01-133.83,19.52-20.14,43.66-29.93,64.87-29.69Z"/>
  <path class="cls-2" d="M43.93,11.52c20.21-.79,44.81-3.82,64.61,2.16,31.85,9.62,51.77,42.24,47.06,75.73-4.66,33.17-23.01,53.54-55.53,61.66-4.25,1.06-8.58,1.11-12.91,1.13-14,.05-27.99.13-41.99.03-3.38-.02-4.65.96-4.59,4.54.2,11.99.13,23.99.05,35.99-.05,7.04-1.9,8.91-8.9,9.05-7.83.16-15.66.27-23.48.16C2.31,201.89,0,199.54,0,193.74c.02-24.82.11-49.64.22-74.46.03-6.3,2.27-8.96,8.68-9.01,19.82-.16,39.65.01,59.47.05,5.5.01,11.07-.56,16.48.11,11.91,1.47,25.52-9.74,28.71-22.62,3.21-12.99-2.32-25.96-14.25-32.76-.86-.49-1.81-.83-2.72-1.25-3.58-1.95-6.05-2.34-9.34-2.35-12.45-.05-24.91-.17-37.36,0-4.48.06-6.43-1.11-6.12-6.1.47-7.44.05-14.94.12-22.41"/>
  <path class="cls-2" d="M1349.05,10.46c12.16,0,24.35.58,36.47-.12,27.08-1.55,59.61,19.45,64.47,56.48,3.57,27.19-9.15,53.77-32.41,66.79-3.54,1.98-2.63,3.86-1.18,6.32,8.66,14.8,17.32,29.59,25.93,44.41,1.5,2.58,3.12,5.17,4.04,7.98,1.74,5.3-1.48,9.91-7.06,10.03-9.32.21-18.65.04-27.98.09-3.75.02-5.6-2.45-7.27-5.24-13.59-22.72-27.17-45.43-40.77-68.14-1.97-3.28-4.09-6.48-5.99-9.8-4.83-8.42-.73-16.01,8.88-16.3,5.82-.18,11.66.05,17.49-.02,11.85-.13,23.9-10.6,25.53-22.1,1.7-11.98-6.02-24.26-17.69-28.13-2.24-.74-4.51-.98-6.88-.96-26.98.14-53.96.25-80.95.29-5.97.01-8.94-3.01-8.97-8.93-.04-7.66.04-15.32.04-22.99,0-6.66,2.54-9.43,9.32-9.48,14.99-.1,29.98-.03,44.97-.03v-.16Z"/>
  <path class="cls-2" d="M222.41,10.59c12.5,0,25,.33,37.48-.06,38.31-1.19,67.23,33.84,64.86,69.77-1.55,23.48-12,41.59-33.15,52.83-2.54,1.35-2.78,2.48-1.27,4.97,10.18,16.81,20.19,33.72,30.27,50.58,1.93,3.23,3.9,6.56,1.53,10.21-2.21,3.41-5.97,3.05-9.5,3.02-8.83-.09-17.66-.21-26.49-.09-2.98.04-5.05-.81-6.6-3.42-15.65-26.33-31.35-52.63-47.02-78.95-.51-.85-.9-1.79-1.27-2.71-3.1-7.7-.06-12.42,8.2-12.64,6.66-.18,13.36.14,19.98-.45,10.87-.97,17.95-7.59,22.24-17.09,3.98-8.8,2.41-17.3-3.29-24.97-4.92-6.62-11.64-9.64-19.87-9.58-23.99.16-47.98.26-71.97.35-2.49,0-5.01-.04-7.48-.32-5.76-.66-8.68-3.22-8.9-8.84-.34-8.82-.36-17.66,0-26.48.19-4.85,4.11-5.99,8.27-6,14.66-.03,29.32-.01,43.98-.01v-.11Z"/>
  <path class="cls-2" d="M1597.93,9.83c2.54,5.45,4.66,9.73,6.57,14.11,24.32,55.7,50.82,110.4,75.75,165.82,3.36,7.48.56,12.15-7.53,12.31-5.99.11-12.03-.33-17.98.18-6,.51-9.18-2.12-11.47-7.31-6.45-14.63-13.09-29.17-19.79-43.69-7.75-16.78-15.63-33.5-23.49-50.22-.61-1.3-.92-3.28-2.61-3.33-1.74-.05-2.13,1.95-2.72,3.23-9.73,21.36-19.37,42.76-29.1,64.12-4.69,10.3-9.59,20.52-14.27,30.83-1.95,4.29-4.85,6.32-9.75,6.05-5.64-.32-11.33.2-16.98-.08-7.85-.39-11-5.44-7.82-12.51,20.16-44.79,40.42-89.53,60.61-134.31,6.09-13.51,12.08-27.06,18.13-40.58.53-1.19,1.21-2.31,2.43-4.62Z"/>
  <path class="cls-2" d="M789.67,128.47c-6.59,0-10.33-2.07-10.44-8.84-.13-8.82.03-17.65.27-26.47.16-5.68,2.01-7.47,7.66-7.51,12.99-.1,25.98-.03,38.97-.04,27.31-.03,54.62-.07,81.93-.12,7.87-.01,10.11,2.18,10.08,9.98-.03,7.49.01,14.99-.11,22.48-.13,7.52-2.98,10.31-10.32,10.32-19.82.02-39.63,0-59.45,0"/>
  <path class="cls-2" d="M848.97,10.68c19.82,0,39.65-.02,59.47.01,7.69.01,10.17,2.45,10.24,10.18.07,7.33,0,14.66-.08,21.99-.06,6.56-3.44,10.09-10.14,10.29-5.82.18-11.66.03-17.49.04-33.98.06-67.96.13-101.94.18-7.03,0-9.8-2.48-9.96-9.51-.19-8.32-.09-16.66.07-24.98.11-5.72,2.27-7.86,8.37-8.05,8.16-.25,16.32-.2,24.48-.22,12.33-.03,24.65,0,36.98,0v.08Z"/>
  <path class="cls-2" d="M848.16,202.29c-19.64,0-39.28.04-58.93-.02-8.84-.03-10.25-1.5-10.22-10.12.02-7.32.05-14.65.15-21.97.11-7.96,3.1-10.86,11.48-10.88,24.64-.05,49.27,0,73.91-.03,14.65-.02,29.29-.1,43.94-.19,6.86-.04,9.87,2.67,9.95,9.5.1,7.99.07,15.98-.08,23.97-.13,7.13-3.18,9.81-10.27,9.79-19.97-.06-39.95-.02-59.92-.02v-.03Z"/>
  <path class="cls-2" d="M1203.68,159.1c20.14,0,40.29,0,60.43,0,5.46,0,9,3.36,9.08,8.9.11,7.82.08,15.65.02,23.47-.06,8.22-2.96,11.1-11.19,11.11-33.96.03-67.92.03-101.88.05-5.49,0-10.99.1-16.48.04-6.41-.08-9.55-3.14-9.59-9.45-.06-8.16-.02-16.31.07-24.47.07-6.2,3.39-9.42,9.61-9.43,19.98-.02,39.96,0,59.93,0v-.21Z"/>
  <path class="cls-2" d="M1204.07,128.46c-19.99,0-39.99.01-59.98,0-7.36,0-9.91-2.59-9.88-9.87.03-7.66.04-15.33.07-22.99.04-7.6,2.4-10.07,10.18-10.15,10.83-.11,21.66-.02,32.49-.03,27.99-.02,55.98-.05,83.97-.07,8.88,0,12.11,3.15,12.08,11.85-.03,7.66-.04,15.33-.14,22.99-.09,6.68-2,8.43-8.82,8.43-19.99,0-39.99,0-59.98,0v-.17Z"/>
  <path class="cls-2" d="M1204.61,10.46c19.48,0,38.95-.03,58.43.01,7.97.02,9.98,2.15,9.93,10.08-.05,7.49-.01,14.98-.13,22.47-.1,6.73-3.12,9.74-9.85,9.76-39.78.13-79.57.24-119.35.3-5.82,0-9.04-3.16-9.03-8.93.01-8.15.21-16.3.38-24.45.13-6.11,3.14-9.15,9.19-9.17,20.14-.04,40.28-.02,60.42-.02v-.07Z"/>
  <path class="cls-2" d="M1295.88,152.98c0-13.49-.02-26.99,0-40.48.01-7,2.26-9.19,9.29-9.2,7.5,0,15-.06,22.49.01,6.23.06,8.85,2.66,8.85,8.81.01,26.99,0,53.98-.07,80.97-.01,6.15-2.77,8.82-8.89,8.83-8.16.01-16.32.1-24.48-.06-5.35-.11-7.11-1.97-7.14-7.4-.08-13.83-.03-27.66-.03-41.48h-.03Z"/>
  <path class="cls-4" d="M437.96,206.25c-11.14-.35-22.45-1-33.38-.04-12.5,1.1-24.9.65-37.33,1-9.87.28-12.75-2.79-12.79-12.79-.05-11.49.03-22.98.09-34.47.04-6.59,3.03-9.75,9.71-9.9,8.16-.18,16.32-.16,24.48-.1,5.54.04,10.31-1.41,14.63-5.18,7.77-6.79,16.07-12.97,23.81-19.78,10.55-9.27,18.71-4.05,24.46,2.89,5.61,6.77,2.92,18.26-5.03,22.15-1.44.7-3.79,1.04-3.49,2.92.36,2.24,2.74,1.17,4.23,1.21,4.16.13,8.37-.38,12.48.1,15.14,1.78,28.26-2.63,40.72-11.16,10-6.84,20.99-12.24,31.35-18.59,4.51-2.76,8.82-3.86,13.57-1.16,4.9,2.79,7.42,7.07,7.37,12.72-.03,2.8.03,5.15,1.95,7.81,2.33,3.24.45,6.64-2.84,8.88-11.69,7.97-23.34,16-35.07,23.92-12.41,8.38-24.83,16.75-37.35,24.96-4.36,2.86-9.32,4.5-14.58,4.58-8.99.13-17.99.04-26.98.04ZM549.12,148.52c-1.61-.24-2.82.6-4.13,1.38-16.99,10.13-33.98,20.27-51.05,30.26-5.03,2.94-9.47,6.2-10.98,12.2-.11.22-.22.44-.33.66.23-.1.45-.21.68-.31,2.5-.53,4.54-1.98,6.6-3.37,14.96-10.11,30.02-20.07,44.82-30.41,4.84-3.38,10.56-5.63,14.38-10.43.07-.13.14-.27.2-.4-.06.14-.12.28-.19.42ZM386.12,154.59c-6.79-.02-13.59-.08-20.38-.03-4.23.03-6.33,1.99-6.06,6.52.28,4.79.09,9.61.11,14.41-1.45,6.7-.44,13.48-.67,20.23-.19,5.59,1.61,7.46,7.35,7.6,6.78.16,13.58.05,20.36-.24,3.64-.15,7.42.54,12.2-1.12-5.62-3.1-7.82-8.15-11.89-11.46l-2.01-3.97c-.2-.46-.41-.92-.61-1.38-.82-2.67-1.92-5.29-2.41-8.02-1.26-7.01-2.67-14.16,3.95-19.63,1.17-.45,2.12-1.18,1.78-2.53-.17-.68-1.05-.63-1.71-.39ZM432.88,161.41c-.7-.67-.79-1.47-.28-2.23,3.23-4.74,5.77-9.96,11.28-12.87,5.51-2.9,6.92-6.74,5.57-12.73-3.13-8.71-10.66-12.03-16.9-7.09-14.75,11.69-29.31,23.63-43.97,35.42-2,1.61-2.79,3.51-2.65,6.08.49,8.89,4.02,16.54,9.26,23.53,3.2,6.68,8.88,9.33,15.91,9.78,2.03.04,4.07.09,6.1.13,13.78.09,27.6-.47,41.32.49,9.65.67,15.24-3.81,19.84-11.06,1.42-2.24,2.65-4.6,4.02-6.88.94-1.57,2-2.96,3.67-3.95,15.15-8.97,30.32-17.91,45.33-27.12,5.55-3.4,11.69-5.91,16.48-10.51.13-.48.31-.95.39-1.44.82-5.29.94-10.27-4.4-13.67-4.93-3.14-8.47.07-12.27,2.32-14.72,8.7-29.47,17.36-44.14,26.17-3.26,1.96-6.58,2.84-10.36,2.82-12.79-.06-25.58.12-38.37.04-2.56-.02-4.57.4-5.85,2.76Z"/>
  <path class="cls-2" d="M422.48,75.7c-3.12,5.35-7.59,9.76-9.33,16.14-1.5,5.51-2.24,11.05-3.16,16.61-1.29,7.83-7.58,13.74-14.2,13.79-3.59.03-6.15-1.48-7.53-4.67-1.65-3.8-3.53-7.63-4.35-11.64-.89-4.39-2.37-5.68-6.52-3.55-3.76,1.93-7.79,1.51-11.7.39-6.25-1.8-8.43-6.36-5.14-11.85,9.85-16.4,19.4-33.03,30.22-48.78,5.8-8.45,14.67-14.36,23.99-19.07,3.13-1.58,6.21-3.22,8.72-5.72,1.11-1.11,2.42-1.79,3.95-1.95,14.18-1.42,27.38-6.49,40.71-11.06,1.96-.67,3.89-.8,5.88-.83,11.98-.18,24.17.96,35.9-.86C525.92.17,541.87.21,557.88,0c8.52-.11,11.89,3.85,10.98,12.54-1.23,0-2.47,0-3.7-.01-.6-2.78-.63-5.86-3.81-7.29-10.64-.87-21.28-.44-31.92-.14-4.49-2.23-7.44,1.72-11.11,2.78-.38-.44-.72-1.17-1.43-.76-1.2.68-.61,1.88-.65,2.89.19,1.32-.71,2-1.58,2.69-2.59-.62-5.04.16-7.5.79-.65-2.16,2.39-2.71,1.95-5.42-9.71-.76-19.64-.85-29.39.31-16.99,2.04-33.26,7.54-49.75,11.89-1.27.33-2.17.73-2.02,2.22-1.79,2.19-3.9,3.65-6.92,3.08-.81-.02-1.8-.36-2.4-.02-6.61,3.73-12.94,7.88-18.49,13.12-1.16,1.1-1.58,2.48-1.06,4.07-.27.25-.53.5-.8.75-1.24-.83-2.5-1.91-3.78-.09-4.57,6.48-8.54,13.34-12.28,20.32-.71,1.32-.35,2.81,1.07,3.35,1.44.54,1.85-1.06,2.39-1.96,1.87-3.11,3.75-6.2,6.37-8.75.41.99,1.04,1.77,2.07,2.16q-3.19,5.34,2.62,8.28c.72.36,1.49.63,2.23.93,2.68,1.64,4.41,4.9,8.13,4.77.45,2.62,2.53,1.84,4.16,1.99.62-.03,1.25-.06,1.87-.1,2.75,4.55,5.12.96,7.59-.35.59.55,1.18,1.1,1.77,1.65ZM395.36,70.34c-1.68-1.4-2.69-4.42-5.42-3.46-2.39.84-2.47,3.67-3,5.87-1.41,5.77-2.57,11.58-2.57,17.56-.04,1.44-.86,3.44.42,4.14,1.45.8,3.03-.61,4.42-1.53,3.78-2.5,6.46-6.02,9.29-9.45,6.47-7.83,6.33-8.66-3.15-13.14ZM366.11,96.5c2.15,3.37,5.36,3.19,8.64,2.5,6.82-1.44,5.1-6.94,5.37-11.48,1.01-4.35,1.97-8.72,3.05-13.06.76-3.05-1.56-4.32-3.42-5.4-2.24-1.3-2.67,1.42-3.38,2.55-3.99,6.31-7.86,12.7-11.56,19.18-1.14,2-2.89,4.66,1.28,5.71ZM396.18,100.01c-.34-1.52.79-3.75-1.56-4.63-2.37-.89-8.26,3.81-8.04,6.39.34,4.06,1.81,7.74,4.18,11.05.65.91,1.4,2.11,2.76,1.66,1.28-.43,1.32-1.8,1.45-2.93.43-3.79.8-7.59,1.21-11.54ZM406.04,97.34c2.14-.29,2.35-1.75,2.74-2.96,1.04-3.15,2.02-6.33,2.96-9.51.42-1.42,2.39-3.15.05-4.27-2-.96-4.28-.8-5.75,1.43-1.55,2.36-3.19,4.68-4.55,7.14-.66,1.2-2.88,2.36-1.59,3.73,1.77,1.88,4.23,3.11,6.14,4.43ZM399.73,97.33c-.92,7.27-1.73,13.69-2.62,20.69,6.73-2.6,7.71-8.05,8.74-13.35.82-4.23-3.13-4.85-6.12-7.33Z"/>
  <path class="cls-2" d="M411.25,74.49c-1.63-.15-3.71.63-4.16-1.99,2.17-4.21,5.34-7.8,7.28-12.18,2.34-5.29,1.11-8.06-4.85-9.88-1.83-5.05-5.27-5.85-8.59-1.75-2.5,3.09-4.57,6.53-6.83,9.82-1.03-.39-1.66-1.17-2.07-2.16,1.66-2.62,3.32-5.25,4.98-7.87,1.3-.16,2.51-.37,1.07-1.99.06-1,.12-2,.19-3,.27-.25.53-.5.8-.75,6.58-2.94,11.57-8.15,17.35-12.24,1.81-1.28,4.2-2.23,4.6-4.92,3.02.58,5.13-.89,6.92-3.07,3.47,3.69,4.53,8.76,7.38,12.8.23,1.84,1.35,3.15,2.59,4.39,2.72,5.07,6.55,9.38,12.42,9.68,14.12.72,28.27.76,39.71-9.83,2.06-1.9,4.25-3.8,6.7-5.11,5.26-2.82,6.67-7.35,6.5-12.8.63-2.81,3.03-4.9,3.22-7.89.23-.08.46-.16.69-.24,2.46-.63,4.91-1.41,7.5-.79-1.47,1.99-2.99,3.94-4.41,5.96q-3.98,5.65,2.42,8.18c.67.45,1.34.9,2.02,1.35,3.8,3.12,7.6,6.24,11.4,9.36,4.05,6.12,8.95,10.37,17.11,9.25,4.24-.58,8.61-.11,12.92-.23,3.68-.1,6.2-2.2,7.76-5.32,1.03-2.06-.25-4.66,1.15-6.75,1.16-.02,2.31-.04,3.47-.06.4,2.08.44,4.14-.44,6.13-.82.81-1.91,1.49-2.42,2.47-3.2,6.22-8.61,7.67-15.03,7.5-6.65-.18-13.32-.07-19.97,0-1.56.02-3.4-.7-4.55,1.14-.63.3-1.27.59-1.9.89-1.24-.1-1.98.43-2.15,1.69-.26.83-.82,1.29-1.68,1.39-3.36.4-5.05,2.7-6.26,5.54-6.62,6.47-13.24,12.94-19.87,19.41-1.05-.1-1.86.18-2.12,1.33-2.29,1.22-4.57,2.45-6.86,3.67-1.79.06-3.37.49-4.17,2.32-7.18,4.42-14.12,9.3-22.27,11.91-1.47,0-2.95.01-4.42.02-5.88-1.99-8.11-5.15-7.96-11.3,1.76-.38,1.56-1.83,1.75-3.12.36-2.46,1.73-3.84,4.33-3.78-1.75,2.34-3.05,4.82-2.44,7.89,1.33,6.15,6.48,7.91,13.1,4.3,6.7-3.65,13.25-7.56,19.96-11.19,6.74-3.63,6.85-3.77,2.22-9.86-.38-.51-.96-.87-1.44-1.3-3.56-8.31-5.53-9.3-11.23-5.63-2.29-1.7,1.11-2.74.5-4.24.23-.75.73-1.19,1.51-1.29,4.85.35,3.14-3.08,3.17-5.51.3-.47.61-.93.91-1.4,1.63-.34,1.38-1.68,1.5-2.81.1-.18.19-.36.29-.55l-.55.29c-4.05.44-8.28.02-11.92,2.46-.69.12-1.39.25-2.08.37-.81-.87-1.42-.58-1.91.35-1.62.82-3.32,1.08-5.1.64-1.62-1.06-3.23-1.1-4.82.08-2.05.37-4.06.2-6.02-.48-1.22-1.87-2.25-1.76-3.09.3-1.6,1.16-3.19,2.33-4.79,3.49-1.3-.08-2.08.48-2.21,1.82-.4.5-.7,1.24-1.22,1.47-6.77,3.03-10.68,8.82-14.37,14.82-.59-.55-1.18-1.1-1.77-1.65.87-3.5,4.57-6.72,1.06-10.66-.9-1.24-1.67-4.55-3.38-2.28-3.01,3.99-6.89,7.82-7.15,13.39ZM413.03,45.6c2.92,2.68,4.93,7.18,9.78,6.39,3.86-.63,7.57-2.22,10.8-4.67,2.54-1.92,3.06-3.78.15-5.79.15-.95,0-1.76-1-2.19-.81-1.23-1.68-2.42-2.42-3.69-1.33-2.3-.54-6.56-3.69-6.79-2.73-.2-5.05,2.83-7.39,4.66-.39.3-.7.69-1.05,1.04-1.48.02-2.54.6-2.84,2.16-1.97.93-3.79,2.06-5.2,3.76-.84-.03-1.62.22-1.61,1.16,0,1.05.78,1.55,1.79,1.67.12.19.29.3.52.32.12,1.32.9,1.92,2.18,1.97ZM521.48,39.28c-5.87-7.95-14.85-9.37-22.51-3.22-5.3,4.27-10.21,9.05-14.28,14.53-7.04,9.48-6.15,7.07.22,15.18,2.13,2.55,4.39,5.01,6.34,7.69,1.66,2.28,2.82,2.75,4.9.31,8.01-9.39,17.79-16.95,26.95-25.13,2.74-2.45,2.79-3.94.99-6.38-.78-1.06-1.73-2-2.61-2.99ZM430.47,53.49c-1.79,1.69-6.1.37-6.14,4.31-.02,1.84,1.05,4.56,3.98,3.94,2.73-.57,5.97-1.32,6.38-4.64.26-2.06-1.64-3.46-4.22-3.62ZM441.99,50.45c-.04-1.7-1.12-3.04-2.31-2.85-2.24.36-4.49,1.73-4.95,4.05-.3,1.53,1.78,2.46,3.17,2.43,2.21-.05,3.23-1.94,4.09-3.62Z"/>
  <path class="cls-2" d="M1466.74,187.11c.4-13.6.82-14.02,14.29-14.11,2.5-.02,5.01-.14,7.48.11,4.51.46,7.36,3.1,7.79,7.6.4,4.13.37,8.32.2,12.47-.22,5.44-3.37,8.64-8.74,8.94-3.98.22-7.98.17-11.97.06-6.81-.19-8.87-2.3-9.04-9.07-.05-1.99,0-3.99,0-5.99Z"/>
  <path class="cls-2" d="M526.09,51.68c1.14-1.84,2.98-1.12,4.55-1.14,6.66-.07,13.32-.18,19.97,0,6.42.17,11.83-1.28,15.03-7.5.5-.98,1.6-1.65,2.42-2.47-1.57,6.33-5.65,10.51-11.7,10.86-10.07.58-20.17.78-30.27.25Z"/>
  <path class="cls-2" d="M565.16,12.53c1.23,0,2.47,0,3.7.01.43,3.98.45,7.97-.07,11.95-1.26.02-2.52.03-3.78.05.05-4,.1-8,.14-12.01Z"/>
  <path class="cls-2" d="M452.5,81.66c-2.59-.06-3.97,1.32-4.33,3.78-.19,1.29.02,2.73-1.75,3.12-.53-6.98,4.05-10.41,9.3-13.37.19.17.37.33.55.5-.12.86.21,1.5.96,1.93-1.38,1.59-2.82,3.1-4.74,4.05Z"/>
  <path class="cls-2" d="M473.16,61.65c.61,1.5-2.79,2.54-.5,4.24-.87,1.3-1.99,2.27-3.5,2.73-1-1.41-1.85-.63-2.77.13-2.1,1.74-4.19,3.51-6.98,4.09l-.26-.29c4.34-4.06,9.1-7.58,14.02-10.9Z"/>
  <path class="cls-2" d="M565.02,24.54c1.26-.02,2.52-.03,3.78-.05.47,3.33.42,6.65-.31,9.95-1.16.02-2.31.04-3.47.06-.16-2.4-.31-4.79-.47-7.19.15-.93.31-1.85.46-2.78Z"/>
  <path class="cls-2" d="M480.26,50.64c-.13,1.14.12,2.48-1.5,2.81-3.39-3.14-7.17.48-10.67-.61,3.64-2.44,7.87-2.02,11.92-2.46l.26.26Z"/>
  <path class="cls-2" d="M514.1,61.18c1.21-2.84,2.9-5.14,6.26-5.54-1.59,2.41-3.56,4.39-6.26,5.54Z"/>
  <path class="cls-2" d="M477.84,54.85c-.02,2.43,1.69,5.86-3.17,5.51,1.06-1.84,2.11-3.67,3.17-5.51Z"/>
  <path class="cls-2" d="M454.18,54.27c1.59-1.17,3.19-1.14,4.82-.08-1.59.97-3.2.84-4.82.08Z"/>
  <path class="cls-2" d="M481.08,87.92c.8-1.84,2.38-2.26,4.17-2.32-.99,1.48-2.39,2.24-4.17,2.32Z"/>
  <path class="cls-2" d="M455.73,75.18c.77-1.35,1.87-2.27,3.41-2.63,0,0,.26.29.26.28-.53,1.5-1.5,2.53-3.12,2.84-.18-.17-.37-.33-.56-.5Z"/>
  <path class="cls-4" d="M454.39,99.85c1.47,0,2.95-.02,4.42-.02-1.47,1.1-2.94,1.22-4.42.02Z"/>
  <path class="cls-2" d="M445.07,54.1c.84-2.06,1.86-2.17,3.09-.3-1.03.1-2.06.2-3.09.3Z"/>
  <path class="cls-2" d="M438.07,59.41c.13-1.34.91-1.9,2.21-1.82-.4,1.02-1.18,1.58-2.21,1.82Z"/>
  <path class="cls-2" d="M492.11,81.93c.26-1.15,1.07-1.43,2.12-1.33-.27,1.14-1.04,1.49-2.12,1.33Z"/>
  <path class="cls-2" d="M464.1,53.55c.49-.92,1.09-1.21,1.91-.35-.51.82-1.16.85-1.91.35Z"/>
  <path class="cls-2" d="M522.04,54.26c.17-1.26.91-1.79,2.15-1.69-.32,1.07-1.07,1.58-2.15,1.69Z"/>
  <path class="cls-1" d="M417.2,201.45c-2.03-.04-4.07-.09-6.1-.13-4.75-4.16-10.57-6.58-15.91-9.78-5.25-6.99-8.77-14.65-9.26-23.53-.14-2.56.65-4.47,2.65-6.08,14.67-11.8,29.22-23.74,43.97-35.42,6.24-4.94,13.78-1.62,16.9,7.09-2.05.23-4,1.02-5.39,2.4-5.03,5.01-10.08,10.03-14.75,15.38-3.91,4.48-7.71,9.13-11.23,15.4,5.78-1.72,11.06-1.22,14.8-5.36,1.27-2.36,3.29-2.78,5.85-2.76,12.79.08,25.58-.1,38.37-.04,3.78.02,7.1-.86,10.36-2.82,14.66-8.8,29.41-17.46,44.14-26.17,3.8-2.25,7.33-5.46,12.27-2.32,5.34,3.4,5.22,8.38,4.4,13.67-.08.49-.26.96-.39,1.44-3.85-.91-2.35-4.5-3.22-7.08-1.26,1.25-2.11,2.82-3.34,3.2-6.79,2.13-11.93,6.92-17.8,10.53-14.14,8.69-29.34,15.41-43.82,23.47-2.47,1.37-5.14,2.8-3.38,6.48,2.3,4.81.52,8.91-4.57,10.53-1.16.37-3.31-.33-3.18,1.5.22,3.15-1.77,2.4-3.48,2.62-12.6,1.65-25.26.7-37.9.93-5.65.1-11.29-.13-16.74-1.96-1.26-.42-3.01-2.09-3.74-.09-.62,1.71,1.65,2.36,2.96,2.67,3.58.85,7.24,1.38,11.2,2.09-1.55,1.57-4.09,1.6-3.67,4.15Z"/>
  <path class="cls-5" d="M417.2,201.45c-.42-2.55,2.13-2.58,3.67-4.15-3.96-.72-7.62-1.24-11.2-2.09-1.31-.31-3.58-.96-2.96-2.67.73-2,2.48-.33,3.74.09,5.45,1.83,11.09,2.06,16.74,1.96,12.63-.23,25.3.72,37.9-.93,1.7-.22,3.7.53,3.48-2.62-.13-1.83,2.02-1.13,3.18-1.5,5.09-1.62,6.87-5.72,4.57-10.53-1.76-3.68.91-5.1,3.38-6.48,14.48-8.06,29.68-14.78,43.82-23.47,5.87-3.61,11.01-8.4,17.8-10.53,1.22-.38,2.08-1.95,3.34-3.2.87,2.57-.63,6.17,3.22,7.08-4.79,4.59-10.94,7.1-16.48,10.51-15.01,9.21-30.18,18.14-45.33,27.12-1.68.99-2.73,2.38-3.67,3.95-1.36,2.28-2.6,4.64-4.02,6.88-4.6,7.26-10.19,11.73-19.84,11.06-13.72-.95-27.54-.4-41.32-.49Z"/>
  <path class="cls-1" d="M359.79,175.49c-.02-4.8.17-9.62-.11-14.41-.27-4.53,1.83-6.49,6.06-6.52,6.79-.05,13.59.01,20.38.03-.02.97-.05,1.94-.07,2.92-6.62,5.47-5.21,12.61-3.95,19.63.49,2.73,1.59,5.35,2.41,8.03-.23.65,0,1.1.62,1.38.67,1.32,1.34,2.65,2.01,3.97-4.4.35-7.47-1.33-8.69-6.32-1.41,3.71-3.7,3.78-6.62,2.88-6.02-1.85-11.13-4.49-12.05-11.58Z"/>
  <path class="cls-5" d="M359.79,175.49c.92,7.09,6.03,9.73,12.05,11.58,2.92.9,5.21.83,6.62-2.88,1.22,4.98,4.29,6.66,8.69,6.32,4.07,3.32,6.27,8.37,11.89,11.46-4.78,1.66-8.56.96-12.2,1.12-6.78.28-13.58.4-20.36.24-5.74-.14-7.54-2.01-7.35-7.6.23-6.74-.78-13.53.67-20.23Z"/>
  <path class="cls-5" d="M432.88,161.41c-3.74,4.14-9.02,3.64-14.8,5.36,3.53-6.27,7.33-10.92,11.23-15.4,4.66-5.35,9.71-10.37,14.75-15.38,1.39-1.38,3.34-2.17,5.39-2.4,1.35,5.99-.06,9.82-5.57,12.73-5.51,2.9-8.05,8.13-11.28,12.87-.52.76-.42,1.56.28,2.23Z"/>
  <path class="cls-5" d="M549.1,148.5c-3.82,4.81-9.54,7.05-14.38,10.43-14.8,10.34-29.86,20.3-44.82,30.41-2.06,1.39-4.09,2.84-6.6,3.37l-.35-.35c1.52-6,5.96-9.26,10.98-12.2,17.07-9.99,34.06-20.13,51.05-30.26,1.31-.78,2.52-1.62,4.13-1.38l-.02-.02Z"/>
  <path class="cls-5" d="M395.19,191.53c5.34,3.2,11.16,5.63,15.91,9.78-7.03-.45-12.71-3.11-15.91-9.78Z"/>
  <path class="cls-3" d="M386.05,157.5c.02-.97.05-1.94.07-2.92.67-.24,1.54-.29,1.71.39.34,1.35-.62,2.08-1.78,2.53Z"/>
  <path class="cls-7" d="M549.12,148.52c.06-.14.12-.28.19-.42-.07.13-.14.27-.2.4,0,0,.02.02.02.02Z"/>
  <path class="cls-3" d="M385.13,186.53c-.62-.27-.84-.72-.62-1.38.21.46.41.92.62,1.38Z"/>
  <path class="cls-7" d="M483.3,192.71c-.23.1-.45.21-.68.31.11-.22.22-.44.33-.66,0,0,.35.35.35.35Z"/>
  <path class="cls-6" d="M435.33,35.3c-2.84-4.04-3.91-9.12-7.38-12.8-.14-1.49.75-1.88,2.02-2.22,16.5-4.34,32.77-9.85,49.75-11.89,9.74-1.17,19.68-1.07,29.39-.31.44,2.71-2.6,3.26-1.95,5.42-.23.08-.46.16-.69.24-1.02-.41-1.92-.03-2.86.36-9.67,3.97-19.47,7.59-29.55,10.37-12.92,3.57-25.48,8.44-38.73,10.83Z"/>
  <path class="cls-6" d="M514.69,28.2c-.67-.45-1.34-.9-2.02-1.35,1.29-2.1,2.39-4.35,3.92-6.26,4.18-5.24,8.55-10.33,12.84-15.48,10.64-.3,21.28-.73,31.92.14,1.85,5.65.12,10.14-3.89,14.38-4.64,4.91-10.31,7.38-16.7,8.84-8.73,2-17.39.02-26.08-.27Z"/>
  <path class="cls-3" d="M514.69,28.2c8.69.29,17.34,2.27,26.08.27,6.38-1.46,12.05-3.93,16.7-8.84,4.01-4.25,5.73-8.73,3.89-14.38,3.18,1.43,3.21,4.51,3.81,7.29-.05,4-.1,8-.14,12.01-.15.93-.31,1.85-.46,2.78-3.63,4.39-8.62,6.42-13.83,8.19-8.06,2.74-16.39,1.78-24.64,2.05-3.8-3.12-7.6-6.24-11.4-9.36Z"/>
  <path class="cls-3" d="M366.11,96.5c-4.17-1.05-2.43-3.71-1.28-5.71,3.7-6.48,7.56-12.88,11.56-19.18.71-1.13,1.14-3.84,3.38-2.55,1.86,1.08,4.17,2.35,3.42,5.4-1.08,4.34-2.04,8.7-3.05,13.06-4.77,2.85-10.14,4.75-14.02,8.98Z"/>
  <path class="cls-7" d="M395.36,70.34c9.48,4.48,9.62,5.3,3.15,13.14-2.84,3.43-5.52,6.95-9.29,9.45-1.39.92-2.97,2.32-4.42,1.53-1.29-.7-.46-2.7-.42-4.14,4.77-6.05,6.76-13.63,10.99-19.97Z"/>
  <path class="cls-7" d="M409.53,50.44c5.96,1.83,7.19,4.59,4.85,9.88-1.94,4.38-5.12,7.97-7.28,12.18-3.72.13-5.45-3.13-8.13-4.77,1.21-1.72,2.39-3.46,3.64-5.16,2.77-3.78,3.32-8.83,6.93-12.13Z"/>
  <path class="cls-6" d="M409.53,50.44c-3.61,3.3-4.16,8.35-6.93,12.13-1.24,1.7-2.43,3.44-3.64,5.16-.75-.31-1.52-.57-2.24-.93q-5.81-2.94-2.62-8.28c2.26-3.29,4.33-6.73,6.83-9.82,3.32-4.1,6.76-3.31,8.59,1.75Z"/>
  <path class="cls-3" d="M529.43,5.11c-4.29,5.15-8.66,10.24-12.84,15.48-1.53,1.91-2.63,4.17-3.92,6.26q-6.39-2.52-2.42-8.18c1.42-2.02,2.94-3.98,4.41-5.96.88-.69,1.77-1.37,1.58-2.69.69-.71,1.39-1.42,2.08-2.12,3.67-1.06,6.61-5.01,11.11-2.78Z"/>
  <path class="cls-3" d="M396.18,100.01c-.41,3.94-.78,7.74-1.21,11.54-.13,1.13-.17,2.5-1.45,2.93-1.36.45-2.11-.75-2.76-1.66-2.37-3.3-3.84-6.99-4.18-11.05-.22-2.58,5.67-7.28,8.04-6.39,2.35.88,1.22,3.11,1.56,4.63Z"/>
  <path class="cls-7" d="M406.04,97.34c-1.91-1.33-4.37-2.55-6.14-4.43-1.29-1.37.93-2.53,1.59-3.73,1.36-2.47,3-4.78,4.55-7.14,1.47-2.23,3.75-2.38,5.75-1.43,2.34,1.12.36,2.85-.05,4.27-.93,3.19-1.92,6.36-2.96,9.51-.4,1.21-.61,2.67-2.74,2.96Z"/>
  <path class="cls-7" d="M399.73,97.33c2.99,2.49,6.94,3.11,6.12,7.33-1.02,5.3-2.01,10.75-8.74,13.35.88-6.99,1.7-13.42,2.62-20.69Z"/>
  <path class="cls-3" d="M397.02,48.49c-1.66,2.62-3.32,5.25-4.98,7.87-2.62,2.56-4.49,5.65-6.37,8.75-.54.9-.95,2.5-2.39,1.96-1.42-.53-1.77-2.02-1.07-3.35,3.74-6.98,7.7-13.84,12.28-20.32,1.29-1.82,2.54-.74,3.78.09-.06,1-.12,2-.19,3-.36.66-.71,1.33-1.07,1.99Z"/>
  <path class="cls-6" d="M395.36,70.34c-4.23,6.35-6.22,13.93-10.99,19.97,0-5.98,1.16-11.79,2.57-17.56.54-2.2.62-5.03,3-5.87,2.73-.96,3.73,2.06,5.42,3.46Z"/>
  <path class="cls-7" d="M366.11,96.5c3.88-4.23,9.25-6.14,14.02-8.98-.27,4.54,1.45,10.05-5.37,11.48-3.28.69-6.5.87-8.64-2.5Z"/>
  <path class="cls-3" d="M421.02,25.57c-.4,2.69-2.79,3.64-4.6,4.92-5.77,4.09-10.77,9.3-17.35,12.24-.52-1.58-.1-2.97,1.06-4.06,5.54-5.24,11.87-9.39,18.49-13.12.6-.34,1.59,0,2.4.02Z"/>
  <path class="cls-7" d="M421.78,63.39c3.51,3.94-.19,7.16-1.06,10.66-2.48,1.3-4.85,4.9-7.6.35,3.19-3.43,3.69-8.97,8.66-11Z"/>
  <path class="cls-3" d="M421.78,63.39c-4.97,2.03-5.47,7.57-8.66,11-.62.03-1.25.06-1.87.1.26-5.57,4.14-9.39,7.15-13.39,1.7-2.26,2.48,1.05,3.38,2.28Z"/>
  <path class="cls-2" d="M518.33,7.89c-.69.71-1.39,1.42-2.08,2.12.04-1.01-.55-2.2.65-2.89.71-.41,1.05.32,1.43.76Z"/>
  <path class="cls-7" d="M503.25,21.63c.17,5.45-1.24,9.98-6.5,12.8-2.45,1.31-4.64,3.21-6.7,5.11-11.44,10.59-25.59,10.55-39.71,9.83-5.88-.3-9.7-4.61-12.42-9.68,2.16-.02,4.4-.44,6.45,0,11.99,2.59,22.82-1.44,33.73-5.45,8.87-3.26,16.73-8.49,25.15-12.61Z"/>
  <path class="cls-3" d="M503.25,21.63c-8.42,4.12-16.28,9.35-25.15,12.61-10.91,4.01-21.74,8.04-33.73,5.45-2.05-.44-4.3-.02-6.45,0-1.24-1.24-2.36-2.55-2.59-4.38,13.25-2.39,25.8-7.27,38.73-10.83,10.08-2.78,19.88-6.41,29.55-10.37.94-.39,1.84-.77,2.86-.36-.19,2.99-2.59,5.07-3.22,7.89Z"/>
  <path class="cls-3" d="M484.91,65.77c-6.36-8.11-7.25-5.7-.22-15.18,4.07-5.48,8.98-10.27,14.28-14.53,7.65-6.15,16.63-4.73,22.51,3.22-4.41,3.09-9.37,5.22-13.58,8.76-7.4,6.22-15.3,11.85-22.99,17.72Z"/>
  <path class="cls-7" d="M484.91,65.77c7.69-5.88,15.58-11.51,22.99-17.72,4.21-3.54,9.17-5.67,13.58-8.76.88.99,1.82,1.93,2.61,2.99,1.8,2.43,1.75,3.92-.99,6.38-9.15,8.18-18.93,15.74-26.95,25.13-2.08,2.44-3.24,1.97-4.9-.31-1.95-2.68-4.21-5.14-6.34-7.69Z"/>
  <path class="cls-7" d="M526.09,37.56c8.24-.26,16.57.69,24.64-2.05,5.21-1.77,10.21-3.8,13.83-8.19.15,2.4.31,4.79.46,7.19-1.4,2.09-.12,4.69-1.15,6.75-1.56,3.12-4.07,5.22-7.76,5.32-4.31.12-8.68-.35-12.92.23-8.16,1.12-13.05-3.13-17.11-9.25Z"/>
  <path class="cls-3" d="M469.16,68.62c1.52-.47,2.64-1.44,3.5-2.73,5.7-3.67,7.67-2.68,11.23,5.63-4.87,3.1-9.63,6.4-14.64,9.26-6.12,3.49-11.54,8.61-19.19,8.78-.61-3.07.69-5.55,2.44-7.89,1.93-.94,3.37-2.46,4.75-4.05,4.14-2.78,8.26-5.57,11.91-8.99Z"/>
  <path class="cls-7" d="M450.06,89.55c7.65-.16,13.07-5.29,19.19-8.78,5.01-2.86,9.77-6.16,14.64-9.26.49.43,1.06.79,1.44,1.3,4.63,6.09,4.52,6.22-2.22,9.86-6.71,3.62-13.26,7.54-19.96,11.19-6.62,3.6-11.77,1.84-13.1-4.3Z"/>
  <path class="cls-6" d="M410.15,40.48c1.41-1.7,3.23-2.83,5.2-3.76,1.48-.02,2.77-.29,2.84-2.16.35-.35.67-.74,1.05-1.04,2.34-1.83,4.66-4.87,7.39-4.66,3.15.24,2.36,4.5,3.69,6.79.74,1.27,1.61,2.46,2.42,3.69-7.04,2.76-14.75,2.09-21.9,4.29-.22-.03-.39-.14-.51-.32-.06-.94-.12-1.88-.18-2.83Z"/>
  <path class="cls-7" d="M433.75,41.53c2.91,2,2.4,3.86-.15,5.79-3.23,2.44-6.94,4.03-10.8,4.67-4.84.79-6.85-3.71-9.78-6.39,6.91-1.36,13.82-2.71,20.72-4.07Z"/>
  <path class="cls-7" d="M430.47,53.49c2.59.15,4.48,1.55,4.22,3.62-.41,3.32-3.65,4.07-6.38,4.64-2.93.61-4-2.1-3.98-3.94.04-3.95,4.35-2.62,6.14-4.31Z"/>
  <path class="cls-3" d="M433.75,41.53c-6.91,1.36-13.82,2.71-20.72,4.07-1.28-.05-2.06-.65-2.18-1.97,7.15-2.21,14.86-1.53,21.9-4.29.99.43,1.15,1.24,1,2.19Z"/>
  <path class="cls-7" d="M441.99,50.45c-.86,1.69-1.88,3.57-4.09,3.62-1.4.03-3.48-.89-3.17-2.43.46-2.32,2.71-3.69,4.95-4.05,1.19-.19,2.27,1.15,2.31,2.85Z"/>
  <path class="cls-6" d="M410.15,40.48c.06.94.12,1.88.18,2.83-1.01-.12-1.78-.61-1.79-1.66,0-.94.77-1.19,1.61-1.16Z"/>
  <path class="cls-6" d="M418.2,34.56c-.07,1.87-1.36,2.15-2.84,2.16.31-1.56,1.36-2.14,2.84-2.16Z"/>
  <path class="cls-4" d="M397.02,48.49c.36-.66.71-1.33,1.07-1.99,1.44,1.63.23,1.83-1.07,1.99Z"/>
  <path class="cls-4" d="M480,50.38l.55-.29c-.1.18-.19.36-.29.55,0,0-.26-.26-.26-.26Z"/>
  <path class="cls-2" d="M469.16,68.62c-3.65,3.42-7.78,6.21-11.91,8.99-.75-.43-1.08-1.07-.96-1.93,1.62-.31,2.59-1.34,3.12-2.84,2.79-.57,4.88-2.35,6.98-4.08.92-.76,1.78-1.54,2.77-.13Z"/>
  <rect class="cls-2" x="8.88" y="11.37" width="48.8" height="40.48" rx="4.85" ry="4.85"/>
  <rect class="cls-2" x="169.9" y="105.56" width="42.4" height="97.97" rx="7.72" ry="7.72"/>
  <rect class="cls-2" x="1691.67" y="9.83" width="34.79" height="74.49" rx="7.26" ry="7.26"/>
  <rect class="cls-2" x="1691.67" y="96.01" width="34.79" height="105.95" rx="7.26" ry="7.26"/>
</svg>